<svg width="24" height="24" viewBox="0 0 24 24" fill="none" xmlns="http://www.w3.org/2000/svg">
<path d="M20.8 12.4004V16.4004C20.7975 16.6118 20.7125 16.8139 20.563 16.9634C20.4135 17.1128 20.2114 17.1979 20 17.2004H19.2C19.2 17.8369 18.9471 18.4474 18.4971 18.8975C18.047 19.3476 17.4365 19.6004 16.8 19.6004C16.1635 19.6004 15.553 19.3476 15.1029 18.8975C14.6528 18.4474 14.4 17.8369 14.4 17.2004H9.59998C9.59998 17.8369 9.34714 18.4474 8.89705 18.8975C8.44696 19.3476 7.8365 19.6004 7.19998 19.6004C6.56346 19.6004 5.953 19.3476 5.50291 18.8975C5.05282 18.4474 4.79998 17.8369 4.79998 17.2004H3.99998C3.89453 17.2007 3.79004 17.1802 3.69256 17.1399C3.59508 17.0997 3.50657 17.0406 3.43201 16.966C3.35769 16.8919 3.2989 16.8037 3.25906 16.7066C3.21923 16.6095 3.19912 16.5054 3.19998 16.4004V6.80042C3.19839 6.4848 3.25943 6.172 3.37947 5.8801C3.49952 5.5882 3.67622 5.323 3.8994 5.09982C4.12257 4.87664 4.38777 4.69992 4.67967 4.57987C4.97157 4.45982 5.28436 4.39883 5.59998 4.40042H12.8C13.4365 4.40042 14.047 4.65328 14.4971 5.10336C14.9471 5.55345 15.2 6.1639 15.2 6.80042V8.40042H16.8C17.1721 8.4013 17.5389 8.48809 17.872 8.65402C18.2046 8.82208 18.4946 9.06365 18.72 9.36042L20.64 11.9204C20.656 11.9548 20.68 11.9924 20.696 12.0324L20.744 12.1204C20.7748 12.2109 20.7935 12.3051 20.8 12.4004ZM7.99998 17.2004C7.9997 17.042 7.95243 16.8871 7.86404 16.7556C7.77517 16.6246 7.65002 16.5223 7.50399 16.4612C7.35777 16.4007 7.1969 16.3848 7.04168 16.4157C6.88646 16.4466 6.74389 16.5229 6.63201 16.6348C6.51905 16.7466 6.44117 16.889 6.40799 17.0444C6.38363 17.2001 6.40022 17.3595 6.45604 17.5068C6.51938 17.6517 6.62188 17.7761 6.75203 17.866C6.87297 17.9455 7.01304 17.9909 7.1576 17.9975C7.30216 18.0042 7.44583 17.9717 7.57352 17.9036C7.70121 17.8355 7.80824 17.7343 7.88328 17.6105C7.95832 17.4868 7.99861 17.3451 7.99998 17.2004ZM13.6 6.80042C13.5975 6.58902 13.5125 6.38698 13.363 6.23749C13.2135 6.088 13.0114 6.00291 12.8 6.00042H5.59998C5.49453 6.00013 5.39004 6.02069 5.29256 6.06091C5.19508 6.10114 5.10657 6.16024 5.03201 6.23482C4.95769 6.30894 4.8989 6.39714 4.85906 6.49426C4.81923 6.59137 4.79912 6.69546 4.79998 6.80042V15.6004H5.42401C5.76229 15.2275 6.20953 14.9706 6.70213 14.8664C7.19473 14.7621 7.70767 14.8157 8.16805 15.0196C8.47352 15.1572 8.74819 15.3547 8.97596 15.6004H13.6V6.80042ZM15.2 11.6004H18.4L17.44 10.3204C17.3623 10.222 17.264 10.1417 17.152 10.0852C17.0428 10.0301 16.9223 10.0011 16.8 10.0004H15.2V11.6004ZM17.6 17.2004C17.5997 17.042 17.5524 16.8871 17.464 16.7556C17.3752 16.6246 17.25 16.5223 17.104 16.4612C16.9578 16.4007 16.7969 16.3848 16.6417 16.4157C16.4865 16.4466 16.3439 16.5229 16.232 16.6348C16.1191 16.7466 16.0412 16.889 16.008 17.0444C15.9836 17.2001 16.0002 17.3595 16.056 17.5068C16.1194 17.6517 16.2219 17.7761 16.352 17.866C16.473 17.9455 16.613 17.9909 16.7576 17.9975C16.9022 18.0042 17.0458 17.9717 17.1735 17.9036C17.3012 17.8355 17.4082 17.7343 17.4833 17.6105C17.5583 17.4868 17.5986 17.3451 17.6 17.2004ZM19.2 13.2004H15.2V15.4244C15.6705 15.0026 16.2889 14.7843 16.92 14.8172C17.5532 14.8515 18.1478 15.1327 18.576 15.6004H19.2V13.2004Z" fill="white"/>
</svg>
